<svg xmlns="http://www.w3.org/2000/svg" xmlns:xlink="http://www.w3.org/1999/xlink" width="375" viewBox="0 0 375 166.5" height="166.5" version="1.0"><defs><g id="b"><path d="M 38.265625 -34.359375 L 35.96875 -24.765625 L 12.890625 -111.765625 L 17.890625 -111.765625 Z M 43.328125 -53.046875 L 40.828125 -43.734375 L 22.953125 -111.765625 L 27.875 -111.765625 Z M 48.390625 -72.421875 L 45.828125 -62.96875 L 32.9375 -111.765625 L 38 -111.765625 Z M 67.625 0 L 62.5625 0 L 92.125 -111.625 L 92.0625 -111.765625 L 97.1875 -111.765625 L 97.1875 -111.625 L 110.34375 -66.28125 L 122.421875 -111.765625 L 127.484375 -111.765625 L 97.859375 0 L 92.796875 0 L 79.5625 -45.28125 Z M 57.5 0 L 52.5 0 L 82.0625 -111.765625 L 87.0625 -111.765625 Z M 47.4375 0 L 42.453125 0 L 72.078125 -111.765625 L 77 -111.765625 Z M 128.09375 0 L 123.03125 0 L 152.59375 -111.765625 L 157.65625 -111.765625 Z M 117.96875 0 L 112.984375 0 L 142.53125 -111.765625 L 147.53125 -111.765625 Z M 107.921875 0 L 102.921875 0 L 132.546875 -111.765625 L 137.46875 -111.765625 Z M 34.890625 -9.578125 L 61.953125 -111.765625 L 67.015625 -111.765625 L 37.390625 0 L 32.328125 0 L 2.765625 -111.765625 L 7.828125 -111.765625 Z M 82.140625 -54.796875 L 95.234375 -9.171875 L 97.796875 -18.828125 L 84.625 -64.3125 Z M 87.125 -73.828125 L 100.296875 -28.34375 L 102.859375 -37.859375 L 89.6875 -83.421875 Z M 92.125 -92.734375 L 105.34375 -47.25 L 107.84375 -56.828125 L 94.75 -102.453125 Z M 92.125 -92.734375"/></g><g id="c"><path d="M 80.515625 -38.9375 C 80.515625 -40.695312 79.984375 -41.867188 78.921875 -42.453125 C 77.867188 -43.035156 76.332031 -43.328125 74.3125 -43.328125 L 42.984375 -43.328125 L 42.984375 -48.1875 L 74.3125 -48.1875 C 81.6875 -48.1875 85.375 -45.101562 85.375 -38.9375 C 85.375 -35.476562 84.359375 -32.984375 82.328125 -31.453125 C 80.304688 -29.921875 77.632812 -29.15625 74.3125 -29.15625 L 42.984375 -29.15625 L 42.984375 -34.015625 L 74.3125 -34.015625 C 78.445312 -34.015625 80.515625 -35.65625 80.515625 -38.9375 Z M 40.296875 0 L 35.4375 0 L 35.4375 -82.609375 L 74.3125 -82.609375 C 77.363281 -82.609375 79.96875 -81.671875 82.125 -79.796875 C 84.289062 -77.929688 85.375 -75.609375 85.375 -72.828125 C 85.375 -69.128906 84.359375 -66.457031 82.328125 -64.8125 C 80.304688 -63.175781 77.632812 -62.359375 74.3125 -62.359375 L 42.984375 -62.359375 L 42.984375 -67.21875 L 74.3125 -67.21875 C 78.445312 -67.21875 80.515625 -69.085938 80.515625 -72.828125 C 80.515625 -74.347656 79.925781 -75.546875 78.75 -76.421875 C 77.582031 -77.304688 76.101562 -77.75 74.3125 -77.75 L 40.296875 -77.75 Z M 42.984375 -57.5 L 74.3125 -57.5 C 78.757812 -57.5 82.523438 -58.835938 85.609375 -61.515625 C 88.691406 -64.191406 90.234375 -67.960938 90.234375 -72.828125 C 90.234375 -76.734375 88.625 -80.148438 85.40625 -83.078125 C 82.1875 -86.003906 78.488281 -87.46875 74.3125 -87.46875 L 30.578125 -87.46875 L 30.578125 0 L 25.71875 0 L 25.71875 -92.328125 L 74.3125 -92.328125 C 79.84375 -92.328125 84.6875 -90.378906 88.84375 -86.484375 C 93.007812 -82.597656 95.09375 -78.046875 95.09375 -72.828125 C 95.09375 -68.734375 94.132812 -65.15625 92.21875 -62.09375 C 90.3125 -59.03125 87.738281 -56.664062 84.5 -55 C 91.5625 -52.476562 95.09375 -47.347656 95.09375 -39.609375 C 95.09375 -33.492188 93.066406 -28.601562 89.015625 -24.9375 C 84.960938 -21.269531 80.0625 -19.4375 74.3125 -19.4375 L 42.984375 -19.4375 L 42.984375 -24.296875 L 74.3125 -24.296875 C 78.757812 -24.296875 82.523438 -25.632812 85.609375 -28.3125 C 88.691406 -30.988281 90.234375 -34.753906 90.234375 -39.609375 C 90.234375 -42.898438 89.0625 -45.804688 86.71875 -48.328125 C 84.382812 -50.847656 80.941406 -52.304688 76.390625 -52.703125 C 75.941406 -52.660156 75.25 -52.640625 74.3125 -52.640625 L 42.984375 -52.640625 Z M 104.8125 -72.828125 C 104.8125 -66.523438 102.582031 -60.832031 98.125 -55.75 C 102.582031 -50.800781 104.8125 -45.421875 104.8125 -39.609375 C 104.8125 -33.992188 103.40625 -28.878906 100.59375 -24.265625 C 97.78125 -19.648438 94.046875 -16.070312 89.390625 -13.53125 C 84.734375 -10.988281 79.707031 -9.71875 74.3125 -9.71875 L 42.984375 -9.71875 L 42.984375 -14.578125 L 74.3125 -14.578125 C 81.320312 -14.578125 87.347656 -16.925781 92.390625 -21.625 C 97.429688 -26.332031 99.953125 -32.328125 99.953125 -39.609375 C 99.953125 -42.222656 99.285156 -45.113281 97.953125 -48.28125 C 96.628906 -51.457031 94.796875 -53.878906 92.453125 -55.546875 C 97.453125 -60.222656 99.953125 -65.984375 99.953125 -72.828125 C 99.953125 -79.390625 97.382812 -85.085938 92.25 -89.921875 C 87.125 -94.765625 81.144531 -97.1875 74.3125 -97.1875 L 20.859375 -97.1875 L 20.859375 0 L 16 0 L 16 -102.046875 L 74.3125 -102.046875 C 79.664062 -102.046875 84.691406 -100.726562 89.390625 -98.09375 C 94.085938 -95.457031 97.832031 -91.878906 100.625 -87.359375 C 103.414062 -82.835938 104.8125 -77.992188 104.8125 -72.828125 Z M 103.671875 -55.46875 C 107.671875 -60.820312 109.671875 -66.609375 109.671875 -72.828125 C 109.671875 -78.898438 108.0625 -84.554688 104.84375 -89.796875 C 101.625 -95.035156 97.289062 -99.195312 91.84375 -102.28125 C 86.40625 -105.363281 80.5625 -106.90625 74.3125 -106.90625 L 11.140625 -106.90625 L 11.140625 0 L 6.28125 0 L 6.28125 -111.765625 L 74.3125 -111.765625 C 81.414062 -111.765625 88.0625 -110.007812 94.25 -106.5 C 100.4375 -102.988281 105.363281 -98.226562 109.03125 -92.21875 C 112.695312 -86.21875 114.53125 -79.753906 114.53125 -72.828125 C 114.53125 -66.210938 112.660156 -60.40625 108.921875 -55.40625 C 112.660156 -50.226562 114.53125 -44.960938 114.53125 -39.609375 C 114.53125 -33.585938 113.445312 -28.066406 111.28125 -23.046875 C 109.125 -18.023438 106.210938 -13.847656 102.546875 -10.515625 C 98.878906 -7.191406 94.613281 -4.609375 89.75 -2.765625 C 84.894531 -0.921875 79.75 0 74.3125 0 L 42.984375 0 L 42.984375 -4.859375 L 74.3125 -4.859375 C 79.03125 -4.859375 83.546875 -5.742188 87.859375 -7.515625 C 92.179688 -9.296875 95.941406 -11.71875 99.140625 -14.78125 C 102.335938 -17.84375 104.890625 -21.53125 106.796875 -25.84375 C 108.710938 -30.164062 109.671875 -34.753906 109.671875 -39.609375 C 109.671875 -41.773438 109.164062 -44.375 108.15625 -47.40625 C 107.144531 -50.445312 105.648438 -53.132812 103.671875 -55.46875 Z M 103.671875 -55.46875"/></g><clipPath id="a"><path d="M 0.5625 0 L 374.4375 0 L 374.4375 166 L 0.5625 166 Z M 0.5625 0"/></clipPath></defs><g clip-path="url(#a)"><path fill="#101011" d="M 0.5625 0 L 374.4375 0 L 374.4375 166 L 0.5625 166 Z M 0.5625 0"/></g><g fill="#FFF"><use x="47.635" y="134.795" xmlns:xlink="http://www.w3.org/1999/xlink" xlink:href="#b" xlink:type="simple" xlink:actuate="onLoad" xlink:show="embed"/></g><g fill="#FFF"><use x="208.178" y="134.795" xmlns:xlink="http://www.w3.org/1999/xlink" xlink:href="#c" xlink:type="simple" xlink:actuate="onLoad" xlink:show="embed"/></g></svg>