<svg xmlns="http://www.w3.org/2000/svg" xmlns:xlink="http://www.w3.org/1999/xlink" width="375" viewBox="0 0 375 166.5" height="166.5" version="1.0"><defs><g id="a"><path d="M 38.296875 -34.375 L 36 -24.78125 L 12.90625 -111.84375 L 17.90625 -111.84375 Z M 43.359375 -53.09375 L 40.859375 -43.765625 L 22.96875 -111.84375 L 27.890625 -111.84375 Z M 48.421875 -72.46875 L 45.859375 -63.015625 L 32.96875 -111.84375 L 38.03125 -111.84375 Z M 67.671875 0 L 62.609375 0 L 92.203125 -111.71875 L 92.125 -111.84375 L 97.265625 -111.84375 L 97.265625 -111.71875 L 110.4375 -66.328125 L 122.515625 -111.84375 L 127.59375 -111.84375 L 97.9375 0 L 92.875 0 L 79.640625 -45.328125 Z M 57.546875 0 L 52.546875 0 L 82.125 -111.84375 L 87.125 -111.84375 Z M 47.484375 0 L 42.484375 0 L 72.140625 -111.84375 L 77.0625 -111.84375 Z M 128.203125 0 L 123.125 0 L 152.71875 -111.84375 L 157.78125 -111.84375 Z M 118.0625 0 L 113.0625 0 L 142.65625 -111.84375 L 147.65625 -111.84375 Z M 108 0 L 103 0 L 132.65625 -111.84375 L 137.578125 -111.84375 Z M 34.921875 -9.59375 L 62 -111.84375 L 67.0625 -111.84375 L 37.421875 0 L 32.359375 0 L 2.765625 -111.84375 L 7.828125 -111.84375 Z M 82.203125 -54.84375 L 95.296875 -9.1875 L 97.875 -18.84375 L 84.703125 -64.375 Z M 87.203125 -73.890625 L 100.375 -28.375 L 102.9375 -37.890625 L 89.765625 -83.484375 Z M 92.203125 -92.796875 L 105.4375 -47.28125 L 107.9375 -56.875 L 94.828125 -102.53125 Z M 92.203125 -92.796875"/></g><g id="b"><path d="M 80.578125 -38.96875 C 80.578125 -40.726562 80.046875 -41.898438 78.984375 -42.484375 C 77.929688 -43.066406 76.390625 -43.359375 74.359375 -43.359375 L 43.03125 -43.359375 L 43.03125 -48.21875 L 74.359375 -48.21875 C 81.742188 -48.21875 85.4375 -45.132812 85.4375 -38.96875 C 85.4375 -35.5 84.421875 -33 82.390625 -31.46875 C 80.367188 -29.9375 77.691406 -29.171875 74.359375 -29.171875 L 43.03125 -29.171875 L 43.03125 -34.046875 L 74.359375 -34.046875 C 78.503906 -34.046875 80.578125 -35.6875 80.578125 -38.96875 Z M 40.328125 0 L 35.453125 0 L 35.453125 -82.671875 L 74.359375 -82.671875 C 77.421875 -82.671875 80.03125 -81.734375 82.1875 -79.859375 C 84.351562 -77.992188 85.4375 -75.664062 85.4375 -72.875 C 85.4375 -69.1875 84.421875 -66.519531 82.390625 -64.875 C 80.367188 -63.226562 77.691406 -62.40625 74.359375 -62.40625 L 43.03125 -62.40625 L 43.03125 -67.265625 L 74.359375 -67.265625 C 78.503906 -67.265625 80.578125 -69.132812 80.578125 -72.875 C 80.578125 -74.40625 79.988281 -75.609375 78.8125 -76.484375 C 77.644531 -77.367188 76.160156 -77.8125 74.359375 -77.8125 L 40.328125 -77.8125 Z M 43.03125 -57.546875 L 74.359375 -57.546875 C 78.816406 -57.546875 82.585938 -58.882812 85.671875 -61.5625 C 88.765625 -64.238281 90.3125 -68.007812 90.3125 -72.875 C 90.3125 -76.789062 88.695312 -80.210938 85.46875 -83.140625 C 82.25 -86.066406 78.546875 -87.53125 74.359375 -87.53125 L 30.59375 -87.53125 L 30.59375 0 L 25.734375 0 L 25.734375 -92.40625 L 74.359375 -92.40625 C 79.898438 -92.40625 84.753906 -90.457031 88.921875 -86.5625 C 93.085938 -82.664062 95.171875 -78.101562 95.171875 -72.875 C 95.171875 -68.78125 94.210938 -65.203125 92.296875 -62.140625 C 90.378906 -59.078125 87.800781 -56.710938 84.5625 -55.046875 C 91.632812 -52.523438 95.171875 -47.390625 95.171875 -39.640625 C 95.171875 -33.523438 93.144531 -28.628906 89.09375 -24.953125 C 85.039062 -21.285156 80.128906 -19.453125 74.359375 -19.453125 L 43.03125 -19.453125 L 43.03125 -24.3125 L 74.359375 -24.3125 C 78.816406 -24.3125 82.585938 -25.648438 85.671875 -28.328125 C 88.765625 -31.015625 90.3125 -34.785156 90.3125 -39.640625 C 90.3125 -42.929688 89.140625 -45.835938 86.796875 -48.359375 C 84.453125 -50.878906 81.003906 -52.34375 76.453125 -52.75 C 76.003906 -52.707031 75.304688 -52.6875 74.359375 -52.6875 L 43.03125 -52.6875 Z M 104.890625 -72.875 C 104.890625 -66.570312 102.660156 -60.878906 98.203125 -55.796875 C 102.660156 -50.835938 104.890625 -45.453125 104.890625 -39.640625 C 104.890625 -34.015625 103.484375 -28.894531 100.671875 -24.28125 C 97.859375 -19.664062 94.117188 -16.082031 89.453125 -13.53125 C 84.796875 -10.988281 79.765625 -9.71875 74.359375 -9.71875 L 43.03125 -9.71875 L 43.03125 -14.59375 L 74.359375 -14.59375 C 81.390625 -14.59375 87.425781 -16.941406 92.46875 -21.640625 C 97.507812 -26.347656 100.03125 -32.347656 100.03125 -39.640625 C 100.03125 -42.253906 99.363281 -45.148438 98.03125 -48.328125 C 96.707031 -51.503906 94.875 -53.925781 92.53125 -55.59375 C 97.53125 -60.269531 100.03125 -66.03125 100.03125 -72.875 C 100.03125 -79.445312 97.460938 -85.15625 92.328125 -90 C 87.191406 -94.84375 81.203125 -97.265625 74.359375 -97.265625 L 20.875 -97.265625 L 20.875 0 L 16 0 L 16 -102.125 L 74.359375 -102.125 C 79.722656 -102.125 84.753906 -100.804688 89.453125 -98.171875 C 94.160156 -95.535156 97.910156 -91.953125 100.703125 -87.421875 C 103.492188 -82.898438 104.890625 -78.050781 104.890625 -72.875 Z M 103.75 -55.515625 C 107.75 -60.878906 109.75 -66.664062 109.75 -72.875 C 109.75 -78.957031 108.140625 -84.617188 104.921875 -89.859375 C 101.703125 -95.109375 97.367188 -99.273438 91.921875 -102.359375 C 86.472656 -105.441406 80.617188 -106.984375 74.359375 -106.984375 L 11.140625 -106.984375 L 11.140625 0 L 6.28125 0 L 6.28125 -111.84375 L 74.359375 -111.84375 C 81.472656 -111.84375 88.125 -110.085938 94.3125 -106.578125 C 100.507812 -103.066406 105.441406 -98.304688 109.109375 -92.296875 C 112.785156 -86.285156 114.625 -79.8125 114.625 -72.875 C 114.625 -66.257812 112.753906 -60.453125 109.015625 -55.453125 C 112.753906 -50.273438 114.625 -45.003906 114.625 -39.640625 C 114.625 -33.609375 113.539062 -28.082031 111.375 -23.0625 C 109.21875 -18.039062 106.300781 -13.863281 102.625 -10.53125 C 98.957031 -7.195312 94.691406 -4.609375 89.828125 -2.765625 C 84.960938 -0.921875 79.804688 0 74.359375 0 L 43.03125 0 L 43.03125 -4.859375 L 74.359375 -4.859375 C 79.085938 -4.859375 83.613281 -5.75 87.9375 -7.53125 C 92.257812 -9.3125 96.019531 -11.734375 99.21875 -14.796875 C 102.414062 -17.859375 104.96875 -21.550781 106.875 -25.875 C 108.789062 -30.195312 109.75 -34.785156 109.75 -39.640625 C 109.75 -41.804688 109.242188 -44.410156 108.234375 -47.453125 C 107.222656 -50.492188 105.726562 -53.179688 103.75 -55.515625 Z M 103.75 -55.515625"/></g></defs><path fill="#101011" d="M 17.164062 16.601562 L 358.132812 16.601562 L 358.132812 149.699219 L 17.164062 149.699219 Z M 17.164062 16.601562"/><g fill="#FFF"><use x="47.676" y="134.913" xmlns:xlink="http://www.w3.org/1999/xlink" xlink:href="#a" xlink:type="simple" xlink:actuate="onLoad" xlink:show="embed"/></g><g fill="#FFF"><use x="208.36" y="134.913" xmlns:xlink="http://www.w3.org/1999/xlink" xlink:href="#b" xlink:type="simple" xlink:actuate="onLoad" xlink:show="embed"/></g></svg>